#!OML:ASF H:\Martial Arts Walks\Project 1\Capture day 1\Session 1\male.ASF
:FULLY-SPECIFIED
:DEGREES
1613
root 0.489009 13.9104 4.26541 13.7285 -35.243 -13.7217
lowerback 10.8781 1.86172 1.76705
upperback -1.5722 2.97472 3.44762
thorax -7.88502 1.44805 2.1388
lowerneck -3.12796 7.53003 1.75372
upperneck 3.79371 9.9157 1.10428
head 1.73458 4.99262 0.297629
rclavicle -1.02374e-014 1.51076e-014
rhumerus -78.5888 20.6057 -97.5765
rradius 109.983
rwrist -66.0724
rhand -0.373714 -23.3885
rfingers 7.12502
rthumb 25.2324 -51.7402
lclavicle -1.02374e-014 1.51076e-014
lhumerus 67.6481 25.2203 96.4051
lradius 12.6953
lwrist -77.6126
lhand -27.4745 38.1283
lfingers 7.12502
lthumb -0.878338 428.106
rfemur 5.00752 -11.1283 8.68489
rtibia 42.8674
rfoot -25.1026 -27.6966
rtoes -27.4966
lfemur -66.0042 27.4483 -6.50394
ltibia 72.7812
lfoot -3.9146 0.780315
ltoes -8.82127
1614
root 0.500746 13.9078 4.25044 13.6316 -35.2614 -13.6417
lowerback 10.9577 1.85911 1.69353
upperback -1.55014 2.96172 3.42288
thorax -7.90888 1.44423 2.15415
lowerneck -3.12746 7.52531 1.73141
upperneck 3.74657 9.90972 1.13447
head 1.71634 4.98974 0.308679
rclavicle -1.27073e-013 -3.45885e-014
rhumerus -78.5301 20.6143 -97.6046
rradius 109.931
rwrist -66.1023
rhand -0.212751 -23.4069
rfingers 7.12502
rthumb 25.3866 -51.7367
lclavicle -1.27073e-013 -3.45885e-014
lhumerus 67.5831 25.1416 96.1934
lradius 12.7388
lwrist -77.445
lhand -27.4499 38.1622
lfingers 7.12502
lthumb -0.854632 428.14
rfemur 4.60309 -11.1426 8.5529
rtibia 43.6935
rfoot -24.8688 -27.5532
rtoes -27.4655
lfemur -65.9433 27.2545 -6.49214
ltibia 72.7101
lfoot -3.78508 0.898556
ltoes -8.9911
1615
root 0.513037 13.9053 4.23183 13.5057 -35.2825 -13.5282
lowerback 11.0506 1.85883 1.59447
upperback -1.51831 2.94778 3.39105
thorax -7.93068 1.44093 2.17622
lowerneck -3.18323 7.52851 1.68793
upperneck 3.73977 9.91261 1.19116
head 1.71852 4.99185 0.334982
rclavicle 9.06955e-014 -4.17448e-014
rhumerus -78.4559 20.6227 -97.6339
rradius 109.875
rwrist -66.1246
rhand -0.02946 -23.3975
rfingers 7.12502
rthumb 25.5622 -51.7023
lclavicle 9.06955e-014 -4.17448e-014
lhumerus 67.5181 25.0506 95.9631
lradius 12.789
lwrist -77.2704
lhand -27.4461 38.2372
lfingers 7.12502
lthumb -0.850909 428.215
rfemur 4.12343 -11.1206 8.3923
rtibia 44.6753
rfoot -24.5926 -27.3452
rtoes -27.4515
lfemur -65.8563 27.0259 -6.4893
ltibia 72.6044
lfoot -3.63817 1.03366
ltoes -9.17369
1616
root 0.525734 13.9031 4.20926 13.3556 -35.3099 -13.3839
lowerback 11.1601 1.8625 1.46845
upperback -1.48337 2.93536 3.35452
thorax -7.9597 1.43945 2.20784
lowerneck -3.23782 7.53272 1.64095
upperneck 3.72923 9.91747 1.23971
head 1.71956 4.99472 0.359266
rclavicle 6.38099e-014 1.82882e-014
rhumerus -78.3814 20.6304 -97.6652
rradius 109.821
rwrist -66.1248
rhand 0.187116 -23.3545
rfingers 7.12502
rthumb 25.7696 -51.6294
lclavicle 6.38099e-014 1.82882e-014
lhumerus 67.4512 24.9559 95.7265
lradius 12.8412
lwrist -77.0912
lhand -27.4623 38.3162
lfingers 7.12502
lthumb -0.866589 428.294
rfemur 3.55793 -11.0463 8.21067
rtibia 45.8138
rfoot -24.269 -27.0746
rtoes -27.4404
lfemur -65.7429 26.7668 -6.49128
ltibia 72.4611
lfoot -3.47159 1.18157
ltoes -9.37908
1617
root 0.538798 13.9011 4.1824 13.1818 -35.3486 -13.2055
lowerback 11.282 1.87198 1.31315
upperback -1.44534 2.92618 3.31166
thorax -7.99372 1.4407 2.24836
lowerneck -3.26057 7.52936 1.61466
upperneck 3.68473 9.91403 1.24747
head 1.70732 4.99265 0.36533
rclavicle 2.23633e-015 -2.78299e-015
rhumerus -78.303 20.6329 -97.6984
rradius 109.769
rwrist -66.0944
rhand 0.425505 -23.2821
rfingers 7.12502
rthumb 25.9979 -51.5237
lclavicle 2.23633e-015 -2.78299e-015
lhumerus 67.3966 24.8656 95.51
lradius 12.8887
lwrist -76.9184
lhand -27.5008 38.388
lfingers 7.12502
lthumb -0.903757 428.366
rfemur 2.90041 -10.9051 8.00832
rtibia 47.1032
rfoot -23.9139 -26.7303
rtoes -27.4046
lfemur -65.6051 26.4813 -6.50023
ltibia 72.2807
lfoot -3.28151 1.33824
ltoes -9.61792
1618
root 0.551995 13.8992 4.15121 12.9804 -35.3986 -12.9925
lowerback 11.4164 1.88605 1.12898
upperback -1.40303 2.91839 3.26196
thorax -8.03135 1.44375 2.29737
lowerneck -3.23709 7.52083 1.60976
upperneck 3.59509 9.90574 1.21579
head 1.67563 4.98729 0.352588
rclavicle -8.29926e-015 7.95139e-016
rhumerus -78.2256 20.6328 -97.7473
rradius 109.705
rwrist -66.0135
rhand 0.681316 -23.0417
rfingers 7.12502
rthumb 26.2428 -51.247
lclavicle -8.29926e-015 7.95139e-016
lhumerus 67.3745 24.7962 95.357
lradius 12.926
lwrist -76.7871
lhand -27.5587 38.4447
lfingers 7.12502
lthumb -0.959713 428.422
rfemur 2.1602 -10.6838 7.78896
rtibia 48.5285
rfoot -23.5625 -26.2956
rtoes -27.3101
lfemur -65.4413 26.1707 -6.51356
ltibia 72.0669
lfoot -3.0625 1.49713
ltoes -9.9011
1619
root 0.565038 13.8972 4.11525 12.7634 -35.467 -12.7556
lowerback 11.5582 1.90583 0.917214
upperback -1.36037 2.91378 3.20958
thorax -8.07419 1.44954 2.35837
lowerneck -3.16123 7.50934 1.62154
upperneck 3.4622 9.89561 1.1493
head 1.62362 4.98022 0.323106
rclavicle -6.21202e-014 -2.34566e-014
rhumerus -78.1507 20.6361 -97.8032
rradius 109.657
rwrist -65.9077
rhand 0.906814 -22.8507
rfingers 7.12502
rthumb 26.4587 -51.0237
lclavicle -6.21202e-014 -2.34566e-014
lhumerus 67.3635 24.7479 95.2286
lradius 12.9555
lwrist -76.6644
lhand -27.6264 38.4819
lfingers 7.12502
lthumb -1.02509 428.459
rfemur 1.33295 -10.3656 7.56904
rtibia 50.0731
rfoot -23.2216 -25.7795
rtoes -27.1615
lfemur -65.2643 25.8517 -6.5261
ltibia 71.8268
lfoot -2.811 1.65091
ltoes -10.2258
1620
root 0.577767 13.8947 4.07462 12.5226 -35.5364 -12.4996
lowerback 11.7142 1.92631 0.690761
upperback -1.31526 2.90748 3.15583
thorax -8.12314 1.45511 2.42622
lowerneck -3.06113 7.50103 1.63313
upperneck 3.31482 9.89037 1.08018
head 1.56298 4.97548 0.291575
rclavicle -9.14409e-015 1.39149e-014
rhumerus -78.0698 20.6369 -97.843
rradius 109.653
rwrist -65.7918
rhand 1.07538 -23.0132
rfingers 7.12502
rthumb 26.62 -51.1618
lclavicle -9.14409e-015 1.39149e-014
lhumerus 67.3694 24.7227 95.1478
lradius 12.9775
lwrist -76.5863
lhand -27.688 38.5028
lfingers 7.12502
lthumb -1.0846 428.48
rfemur 0.448213 -9.95827 7.35677
rtibia 51.7142
rfoot -22.9129 -25.1831
rtoes -26.9427
lfemur -65.0751 25.5133 -6.53135
ltibia 71.5661
lfoot -2.52275 1.79682
ltoes -10.5746
